<svg t="1631510790415" class="icon" viewBox="0 0 1024 1024" version="1.1" xmlns="http://www.w3.org/2000/svg" p-id="3081" width="200" height="200"><path d="M497.101685 402.648476c-7.578606 5.89936-14.601556 9.905604-21.065781 12.018731l0 22.464641c12.287861-4.053316 22.960944-10.307763 32.015158-18.764366l0 93.428879 24.74559 0 0-129.796158-20.094664 0C509.878686 389.867382 504.680291 396.749116 497.101685 402.648476z" p-id="3082"></path><path d="M511.706311 64.021106C264.433578 64.021106 63.981197 264.473487 63.981197 511.745197s200.452381 447.725114 447.725114 447.725114 447.725114-200.453405 447.725114-447.725114S758.979044 64.021106 511.706311 64.021106zM414.094156 731.86143l-30.03506-45.1452-54.301743 6.078439 67.719334-133.076878c0 0 2.304486 8.117888 19.665899 8.117888 39.939641 0.867764 27.093055 33.635051 59.46023 34.424021C476.603839 601.38989 414.094156 731.86143 414.094156 731.86143zM492.449735 591.279624c-14.380522 8.05035-25.787316 4.994758-34.216289-9.1678-8.432043-14.162558-20.883633-21.354354-37.365003-21.572318-16.4783-0.218988-24.828478-8.568143-25.046443-25.047466-0.218988-16.479323-7.408737-28.933983-21.570271-37.363979-14.164604-8.429996-17.222243-19.833721-9.169847-34.215266 8.052396-14.381545 8.052396-28.763091 0-43.144636-8.052396-14.380522-4.994758-25.784246 9.169847-34.215266 14.161534-8.428973 21.351284-20.88261 21.570271-37.362956 0.218988-16.479323 8.568143-24.829502 25.046443-25.047466 16.48137-0.217964 28.932959-7.40976 37.365003-21.573341 8.428973-14.162558 19.836791-17.21815 34.216289-9.166777 14.380522 8.05035 28.760021 8.05035 43.143613 0 14.383592-8.051373 25.787316-4.995781 34.216289 9.166777 8.428973 14.163581 20.883633 21.355377 37.365003 21.573341 16.47523 0.217964 24.825408 8.568143 25.043373 25.047466 0.218988 16.480346 7.408737 28.933983 21.573341 37.362956 14.164604 8.43102 17.219173 19.835767 9.169847 34.215266-8.052396 14.381545-8.052396 28.763091 0 43.144636 8.049327 14.381545 4.994758 25.78527-9.169847 34.215266-14.164604 8.429996-21.354354 20.883633-21.573341 37.363979-0.218988 16.479323-8.568143 24.828478-25.043373 25.047466-16.48137 0.217964-28.936029 7.40976-37.365003 21.572318-8.428973 14.162558-19.833721 17.21815-34.216289 9.1678C521.209756 583.229275 506.830257 583.229275 492.449735 591.279624zM640.222313 685.847443l-18.749016 48.617277-76.400041-131.338281c0 0 16.253172 2.676969 29.275767-11.214413 11.289114-9.550517 1.230014-21.775956 50.716078-26.986631l68.590168 127.867226L640.222313 685.847443z" p-id="3083"></path></svg>