<svg t="1631510948610" class="icon" viewBox="0 0 1024 1024" version="1.1" xmlns="http://www.w3.org/2000/svg" p-id="4203" width="200" height="200"><path d="M853.333333 789.333333c-12.586667 0-23.68-8.533333-26.88-20.48l-38.186666-139.946666c31.573333-17.706667 50.986667-54.613333 41.173333-95.146667a85.376 85.376 0 0 0-50.773333-58.24s-0.213333 0-0.213334-0.213333c-3.626667-1.493333-7.466667-2.773333-11.52-3.626667-3.413333-0.853333-6.826667-1.493333-10.24-1.706667-1.28-0.213333-2.56-0.213333-4.053333-0.213333-1.92-0.213333-4.053333-0.426667-5.973333-0.426667-5.333333 0-10.666667 0.64-15.573334 1.493334-0.853333 0.213333-1.493333 0.213333-2.346666 0.426666-4.906667 1.066667-9.386667 2.56-13.866667 4.266667-0.853333 0.426667-1.706667 0.64-2.56 1.066667-4.48 1.92-8.746667 4.266667-12.586667 6.826666-0.64 0.426667-1.066667 0.853333-1.706666 1.28-4.053333 2.773333-7.893333 5.973333-11.306667 9.386667 0 0-0.213333 0-0.213333 0.213333-3.413333 3.413333-6.613333 7.466667-9.386667 11.52-0.426667 0.64-0.853333 1.28-1.28 1.706667-2.56 4.053333-4.906667 8.106667-6.826667 12.586667-0.426667 0.853333-0.64 1.706667-1.066666 2.56-1.92 4.48-3.2 9.173333-4.266667 13.866666-0.213333 0.64-0.213333 1.493333-0.426667 2.133334-1.28 5.333333-1.92 10.666667-1.92 16 0 32 17.706667 59.52 43.733334 74.026666l-38.186667 139.946667c-3.2 12.16-14.293333 20.693333-26.88 20.693333-23.466667 0-42.666667 19.2-42.666667 42.666667v42.666667c0 23.466667 19.2 42.666667 42.666667 42.666666h213.333333c23.466667 0 42.666667-19.2 42.666667-42.666666v-42.666667c0-23.466667-19.2-42.666667-42.666667-42.666667z" p-id="4204"></path><path d="M614.826667 624.426667c-11.306667-21.12-17.493333-45.013333-17.493334-69.76 0-82.346667 66.986667-149.333333 149.333334-149.333334 5.333333 0 14.08 1.28 22.4 2.56 10.666667 1.706667 20.266667-6.4 20.266666-17.28V192c0-47.146667-38.186667-85.333333-85.333333-85.333333H170.666667C123.52 106.666667 85.333333 144.853333 85.333333 192v640c0 47.146667 38.186667 85.333333 85.333334 85.333333h357.546666c6.613333 0 11.306667-6.186667 9.6-12.586666-2.986667-9.386667-4.48-19.626667-4.48-30.08v-42.666667c0-37.546667 19.413333-70.613333 48.853334-89.6 19.2-12.373333 33.92-30.72 40.106666-52.906667 5.973333-21.76 3.2-45.013333-7.466666-65.066666zM437.333333 597.333333h-192c-17.706667 0-32-14.293333-32-32s14.293333-32 32-32h192c17.706667 0 32 14.293333 32 32s-14.293333 32-32 32z m0-128h-192c-17.706667 0-32-14.293333-32-32s14.293333-32 32-32h192c17.706667 0 32 14.293333 32 32s-14.293333 32-32 32z m-192-128c-17.706667 0-32-14.293333-32-32s14.293333-32 32-32h362.666667c17.706667 0 32 14.293333 32 32s-14.293333 32-32 32h-362.666667z" p-id="4205"></path></svg>