<svg t="1631511000422" class="icon" viewBox="0 0 1024 1024" version="1.1" xmlns="http://www.w3.org/2000/svg" p-id="5014" width="200" height="200"><path d="M865.92 536.106667l-170.88-37.333334c54.4-27.733333 91.733333-84.48 91.733333-149.333333v-74.666667C786.773333 182.186667 711.04 106.666667 618.666667 106.666667c-77.44 0-142.933333 53.333333-162.133334 125.013333l-0.64 2.56c-0.853333 3.626667-1.706667 7.04-2.346666 10.666667-0.426667 2.133333-0.64 4.053333-0.853334 6.186666-0.426667 2.773333-0.853333 5.333333-1.066666 8.106667-0.426667 5.12-0.853333 10.24-0.853334 15.36v74.666667c0 7.04 0.64 14.08 1.493334 20.906666 0.213333 2.56 0.853333 4.906667 1.28 7.466667 0.853333 4.266667 1.706667 8.32 2.773333 12.586667 0.64 2.986667 1.493333 5.76 2.346667 8.746666a169.237333 169.237333 0 0 0 84.053333 99.84l-15.36 3.413334-155.306667 33.92a111.957333 111.957333 0 0 0-88.746666 109.653333v132.906667c0 41.173333 33.493333 74.666667 74.666666 74.666666h522.666667c41.173333 0 74.666667-33.493333 74.666667-74.666666v-133.12c-0.64-52.906667-37.76-98.773333-89.386667-109.44z" p-id="5015"></path><path d="M415.146667 461.013333c-18.346667-33.493333-28.586667-71.68-28.586667-111.573333v-74.666667c0-37.333333 8.96-72.32 24.746667-103.68A136.746667 136.746667 0 0 0 341.333333 151.68c-76.373333 0-138.666667 62.293333-138.666666 138.666667v61.653333c0 53.546667 30.72 100.266667 75.733333 123.306667l-141.013333 30.72c-42.666667 8.96-73.386667 46.72-73.386667 90.453333v109.866667C64 740.48 91.52 768 125.653333 768h93.013334v-122.453333c0-82.773333 58.666667-155.306667 139.093333-172.16l57.386667-12.373334z" p-id="5016"></path></svg>